<svg width="16" height="15" viewBox="0 0 16 15" fill="#ff2400" xmlns="http://www.w3.org/2000/svg">
<path d="M13.5406 2.4686C13.2105 2.13119 12.8185 1.86352 12.387 1.68091C11.9555 1.49829 11.4931 1.4043 11.026 1.4043C10.559 1.4043 10.0966 1.49829 9.6651 1.68091C9.23364 1.86352 8.84163 2.13119 8.51146 2.4686L7.82626 3.16853L7.14105 2.4686C6.47414 1.78737 5.56962 1.40465 4.62647 1.40465C3.68332 1.40465 2.77879 1.78737 2.11189 2.4686C1.44498 3.14984 1.07031 4.0738 1.07031 5.03721C1.07031 6.00063 1.44498 6.92458 2.11189 7.60582L2.79709 8.30575L7.82626 13.443L12.8554 8.30575L13.5406 7.60582C13.8709 7.26856 14.133 6.86813 14.3118 6.4274C14.4905 5.98667 14.5825 5.51428 14.5825 5.03721C14.5825 4.56015 14.4905 4.08775 14.3118 3.64702C14.133 3.20629 13.8709 2.80586 13.5406 2.4686V2.4686Z" stroke="#ff2400" stroke-width="1.31951" stroke-linecap="round" stroke-linejoin="round"/>
</svg>
