<svg width="478" height="758" viewBox="0 0 478 758" fill="none" xmlns="http://www.w3.org/2000/svg">
<g clip-path="url(#clip0_1_6079)">
<rect x="161.791" width="324.199" height="702" rx="34.5813" transform="rotate(13.3248 161.791 0)" fill="white"/>
<path d="M186.407 90.7782C182.907 89.9493 180.24 88.1092 178.404 85.2577C176.573 82.3839 176.091 79.1186 176.957 75.4619C177.817 71.8277 179.724 69.1283 182.677 67.3637C185.636 65.5767 188.82 65.0871 192.23 65.8947C193.935 66.2985 195.41 66.9204 196.656 67.7605C197.93 68.5835 198.895 69.5109 199.551 70.5429C200.207 71.5748 200.689 72.5894 200.998 73.5865C201.307 74.5836 201.451 75.5772 201.429 76.5672L196.041 76.9612C196.04 76.4636 195.97 75.9612 195.829 75.4541C195.694 74.9245 195.458 74.371 195.121 73.7937C194.789 73.1939 194.265 72.6552 193.549 72.1776C192.838 71.6775 191.989 71.3106 191.002 71.0768C189.208 70.6518 187.475 70.9165 185.803 71.8711C184.137 72.8033 183.028 74.4359 182.475 76.769C181.965 78.9226 182.232 80.7982 183.275 82.3957C184.318 83.9932 185.782 85.0151 187.666 85.4615C189.506 85.8972 191.039 85.7747 192.267 85.094C193.494 84.4133 194.4 83.5381 194.985 82.4684L199.724 85.1188C199.282 85.9855 198.696 86.8063 197.968 87.5815C197.262 88.3619 196.368 89.086 195.285 89.7537C194.226 90.4267 192.912 90.8736 191.343 91.0944C189.802 91.298 188.157 91.1926 186.407 90.7782ZM209.148 91.189C210.202 91.4387 211.173 91.2896 212.061 90.7418C212.972 90.1993 213.586 89.255 213.905 87.909C214.224 86.563 214.095 85.4546 213.52 84.5838C212.972 83.6959 212.171 83.1271 211.116 82.8774C210.084 82.6329 209.113 82.782 208.203 83.3245C207.293 83.8671 206.681 84.8001 206.367 86.1237C206.054 87.4473 206.18 88.5669 206.744 89.4825C207.315 90.3758 208.116 90.9446 209.148 91.189ZM212.232 78.1663C214.767 78.7667 216.679 80.0962 217.969 82.1548C219.28 84.2187 219.631 86.5406 219.02 89.1204C218.409 91.7003 217.052 93.6296 214.948 94.9083C212.872 96.1698 210.567 96.5004 208.032 95.9C205.519 95.3049 203.61 93.9642 202.304 91.8779C200.997 89.7916 200.647 87.4697 201.252 84.9123C201.858 82.3548 203.21 80.448 205.308 79.1917C207.412 77.913 209.72 77.5712 212.232 78.1663ZM227.539 89.8588L225.268 99.4492L220.153 98.2377L224.114 81.5135L229.061 82.6851L228.606 84.6032C229.208 83.9638 229.994 83.5459 230.964 83.3493C231.963 83.1356 232.922 83.1376 233.842 83.3555C235.838 83.8284 237.204 84.8152 237.938 86.3159C238.678 87.7941 238.816 89.5091 238.354 91.4608L235.868 101.96L230.753 100.748L233.032 91.1243C233.239 90.2494 233.168 89.4982 232.82 88.8706C232.498 88.2259 231.889 87.7973 230.992 87.5848C230.162 87.3882 229.422 87.5092 228.774 87.9479C228.153 88.3694 227.741 89.0064 227.539 89.8588ZM247.377 94.5574L245.106 104.148L239.991 102.936L243.952 86.2121L248.898 87.3836L248.444 89.3017C249.046 88.6624 249.832 88.2444 250.802 88.0478C251.801 87.8341 252.76 87.8362 253.679 88.054C255.676 88.5269 257.041 89.5137 257.776 91.0144C258.516 92.4926 258.654 94.2076 258.192 96.1594L255.705 106.658L250.591 105.447L252.87 95.8228C253.077 94.9479 253.006 94.1967 252.657 93.5691C252.336 92.9245 251.727 92.4959 250.83 92.2833C250 92.0867 249.26 92.2078 248.611 92.6464C247.99 93.0679 247.579 93.7049 247.377 94.5574ZM266.153 98.1871L272.849 99.7731C272.985 98.9997 272.839 98.2662 272.411 97.5725C272.006 96.8842 271.253 96.4098 270.154 96.1495C269.167 95.9157 268.313 96.0213 267.591 96.4665C266.87 96.9116 266.39 97.4851 266.153 98.1871ZM272.191 104.202L276.178 106.425C275.385 107.872 274.196 108.941 272.611 109.632C271.031 110.3 269.232 110.395 267.213 109.917C264.79 109.343 262.918 108.047 261.595 106.028C260.295 104.014 259.967 101.65 260.61 98.9353C261.226 96.333 262.547 94.407 264.572 93.1572C266.62 91.9127 268.777 91.5588 271.043 92.0955C273.645 92.7118 275.506 93.9581 276.625 95.8342C277.772 97.6933 278.027 99.9688 277.39 102.661C277.188 103.513 277.029 104.033 276.914 104.218L265.271 101.461C265.098 102.391 265.307 103.258 265.899 104.062C266.496 104.843 267.299 105.353 268.308 105.592C270.036 106.001 271.33 105.538 272.191 104.202ZM289.121 101.353C288.022 101.092 287.015 101.245 286.099 101.809C285.206 102.38 284.605 103.315 284.297 104.617C283.994 105.895 284.125 106.993 284.69 107.908C285.277 108.829 286.121 109.42 287.22 109.68C288.14 109.898 288.947 109.84 289.642 109.507C290.364 109.157 290.909 108.659 291.276 108.011L295.458 110.459C294.677 111.956 293.444 113.109 291.76 113.918C290.098 114.733 288.213 114.891 286.104 114.391C283.592 113.796 281.657 112.461 280.3 110.387C278.971 108.295 278.61 105.971 279.216 103.413C279.827 100.833 281.17 98.9126 283.246 97.651C285.349 96.3723 287.646 96.0278 290.136 96.6176C292.312 97.133 293.963 98.1163 295.088 99.5674C296.213 101.018 296.784 102.611 296.8 104.344L291.896 104.64C291.865 103.874 291.624 103.189 291.175 102.585C290.726 101.981 290.041 101.57 289.121 101.353ZM308.379 96.3185L307.224 101.198L310.488 101.971L309.428 106.446L306.164 105.673L304.681 111.932C304.405 113.099 304.884 113.828 306.117 114.12C306.521 114.216 306.983 114.266 307.503 114.271L306.499 118.511C305.797 118.676 304.873 118.623 303.729 118.352C302.002 117.943 300.748 117.137 299.967 115.933C299.208 114.735 299.025 113.305 299.418 111.645L301.116 104.478L298.155 103.776L299.215 99.301L300.056 99.5002C300.909 99.7021 301.606 99.6068 302.149 99.2142C302.72 98.8045 303.101 98.1958 303.293 97.3882L303.803 95.2346L308.379 96.3185ZM329.159 101.24L328.004 106.12L331.268 106.893L330.208 111.368L326.944 110.595L325.461 116.854C325.185 118.021 325.664 118.75 326.898 119.042C327.302 119.138 327.763 119.188 328.284 119.193L327.279 123.433C326.577 123.598 325.654 123.545 324.509 123.274C322.782 122.865 321.528 122.059 320.747 120.855C319.988 119.656 319.805 118.227 320.199 116.567L321.896 109.4L318.935 108.698L319.995 104.223L320.836 104.422C321.689 104.624 322.387 104.529 322.93 104.136C323.501 103.726 323.882 103.118 324.073 102.31L324.583 100.156L329.159 101.24ZM339.228 121.998C340.282 122.248 341.254 122.099 342.141 121.551C343.052 121.008 343.666 120.064 343.985 118.718C344.304 117.372 344.176 116.264 343.6 115.393C343.052 114.505 342.251 113.936 341.197 113.686C340.165 113.442 339.194 113.591 338.283 114.134C337.373 114.676 336.761 115.609 336.447 116.933C336.134 118.256 336.26 119.376 336.825 120.292C337.395 121.185 338.196 121.754 339.228 121.998ZM342.312 108.975C344.847 109.576 346.76 110.905 348.049 112.964C349.361 115.028 349.711 117.35 349.1 119.93C348.489 122.509 347.132 124.439 345.028 125.717C342.953 126.979 340.647 127.31 338.112 126.709C335.6 126.114 333.69 124.773 332.384 122.687C331.077 120.601 330.727 118.279 331.333 115.721C331.938 113.164 333.29 111.257 335.388 110.001C337.492 108.722 339.8 108.38 342.312 108.975ZM363.379 138.948L357.995 137.673L363.853 129.892L360.248 113.756L365.968 115.111L367.92 125.027L373.741 116.952L379.159 118.236L363.379 138.948ZM385.433 132.942C386.487 133.191 387.458 133.042 388.346 132.494C389.256 131.952 389.871 131.008 390.19 129.662C390.508 128.316 390.38 127.207 389.804 126.336C389.257 125.448 388.456 124.88 387.401 124.63C386.369 124.385 385.398 124.535 384.488 125.077C383.577 125.62 382.965 126.553 382.652 127.876C382.339 129.2 382.464 130.319 383.029 131.235C383.599 132.128 384.401 132.697 385.433 132.942ZM388.517 119.919C391.052 120.519 392.964 121.849 394.253 123.907C395.565 125.971 395.916 128.293 395.305 130.873C394.693 133.453 393.336 135.382 391.233 136.661C389.157 137.922 386.852 138.253 384.317 137.653C381.804 137.057 379.895 135.717 378.588 133.63C377.282 131.544 376.931 129.222 377.537 126.665C378.143 124.107 379.495 122.201 381.593 120.944C383.696 119.666 386.004 119.324 388.517 119.919ZM407.206 142.541C407.212 142.116 407.3 141.544 407.47 140.826C406.907 141.404 406.168 141.774 405.253 141.936C404.343 142.076 403.428 142.037 402.509 141.819C400.535 141.352 399.122 140.365 398.27 138.861C397.446 137.339 397.254 135.647 397.695 133.785L400.198 123.218L405.312 124.43L403.065 133.919C402.863 134.772 402.923 135.52 403.244 136.165C403.587 136.815 404.197 137.244 405.071 137.451C405.924 137.653 406.658 137.554 407.274 137.155C407.917 136.739 408.34 136.105 408.542 135.252L410.797 125.729L415.912 126.94L412.66 140.67C412.4 141.769 412.22 142.781 412.119 143.704L407.206 142.541ZM430.87 130.483L429.674 135.531C429.23 135.307 428.705 135.123 428.099 134.98C426.955 134.709 425.925 134.856 425.009 135.421C424.116 135.991 423.486 137.05 423.12 138.598L421.39 145.9L416.275 144.689L420.236 127.965L425.183 129.136L424.649 131.391C425.255 130.634 426.018 130.163 426.938 129.978C427.859 129.794 428.734 129.799 429.564 129.996C430.08 130.118 430.515 130.281 430.87 130.483ZM171.606 132.543L166.492 131.332L171.967 108.214L176.914 109.386L176.507 111.102C177.027 110.609 177.772 110.264 178.742 110.067C179.741 109.854 180.8 109.88 181.922 110.145C184.3 110.709 185.991 111.974 186.994 113.941C188.024 115.891 188.237 118.144 187.631 120.702C187.025 123.259 185.774 125.19 183.878 126.494C182.01 127.781 179.909 128.148 177.576 127.596C175.467 127.096 174.086 126.177 173.432 124.837L171.606 132.543ZM180.766 122.381C181.681 121.816 182.296 120.872 182.609 119.548C182.923 118.224 182.794 117.116 182.224 116.223C181.676 115.335 180.864 114.763 179.787 114.508C178.733 114.259 177.75 114.405 176.84 114.948C175.952 115.495 175.351 116.431 175.038 117.755C174.724 119.078 174.839 120.195 175.382 121.106C175.952 121.999 176.764 122.57 177.819 122.82C178.895 123.075 179.878 122.929 180.766 122.381ZM203.358 115.649L202.163 120.696C201.718 120.473 201.193 120.289 200.588 120.146C199.443 119.875 198.414 120.022 197.498 120.587C196.605 121.157 195.975 122.216 195.608 123.764L193.879 131.066L188.764 129.855L192.725 113.13L197.672 114.302L197.138 116.557C197.743 115.8 198.506 115.329 199.427 115.144C200.347 114.959 201.222 114.965 202.052 115.162C202.568 115.284 203.004 115.446 203.358 115.649ZM208.453 123.572L215.149 125.158C215.285 124.385 215.139 123.651 214.711 122.958C214.305 122.269 213.553 121.795 212.453 121.535C211.466 121.301 210.612 121.406 209.891 121.852C209.169 122.297 208.69 122.87 208.453 123.572ZM214.491 129.587L218.478 131.81C217.685 133.257 216.496 134.326 214.911 135.017C213.331 135.685 211.531 135.78 209.512 135.302C207.09 134.728 205.217 133.432 203.895 131.413C202.595 129.399 202.266 127.035 202.909 124.32C203.525 121.718 204.846 119.792 206.872 118.542C208.92 117.298 211.077 116.944 213.342 117.481C215.945 118.097 217.806 119.343 218.925 121.219C220.072 123.078 220.327 125.354 219.689 128.046C219.487 128.898 219.329 129.418 219.214 129.604L207.57 126.846C207.398 127.776 207.607 128.643 208.198 129.447C208.795 130.228 209.598 130.738 210.608 130.977C212.335 131.386 213.63 130.923 214.491 129.587ZM233.214 127.269L229.58 126.408L226.639 138.825L221.524 137.614L224.465 125.197L221.806 124.567L222.827 120.26L225.485 120.89L225.828 119.443C226.29 117.491 227.22 116.065 228.618 115.164C230.044 114.246 231.755 114.023 233.751 114.496C234.873 114.762 235.652 115.076 236.087 115.44L235.098 119.613C234.676 119.394 234.185 119.219 233.624 119.086C233.041 118.948 232.485 118.994 231.956 119.224C231.451 119.459 231.099 119.992 230.903 120.822L230.6 122.101L234.234 122.962L233.214 127.269ZM238.894 130.782L245.59 132.368C245.726 131.595 245.58 130.861 245.152 130.168C244.747 129.479 243.994 129.005 242.895 128.745C241.908 128.511 241.054 128.616 240.332 129.062C239.611 129.507 239.131 130.08 238.894 130.782ZM244.932 136.797L248.919 139.02C248.126 140.467 246.937 141.536 245.352 142.227C243.772 142.895 241.973 142.99 239.954 142.512C237.531 141.938 235.659 140.642 234.336 138.623C233.036 136.609 232.708 134.245 233.351 131.53C233.967 128.928 235.288 127.002 237.313 125.752C239.361 124.508 241.518 124.154 243.784 124.691C246.386 125.307 248.247 126.553 249.366 128.429C250.513 130.288 250.768 132.564 250.131 135.256C249.929 136.108 249.77 136.628 249.655 136.814L238.012 134.056C237.839 134.986 238.048 135.853 238.64 136.657C239.237 137.438 240.04 137.948 241.049 138.187C242.777 138.596 244.071 138.133 244.932 136.797ZM265.786 130.435L264.591 135.482C264.146 135.259 263.621 135.075 263.015 134.931C261.871 134.661 260.841 134.807 259.926 135.372C259.032 135.943 258.402 137.002 258.036 138.55L256.306 145.852L251.191 144.64L255.153 127.916L260.099 129.088L259.565 131.342C260.171 130.586 260.934 130.115 261.854 129.93C262.775 129.745 263.65 129.751 264.48 129.948C264.996 130.07 265.431 130.232 265.786 130.435ZM279.347 133.647L278.152 138.694C277.707 138.47 277.182 138.287 276.576 138.143C275.432 137.872 274.402 138.019 273.487 138.584C272.594 139.155 271.964 140.214 271.597 141.762L269.868 149.064L264.753 147.852L268.714 131.128L273.66 132.3L273.126 134.554C273.732 133.797 274.495 133.327 275.416 133.142C276.336 132.957 277.211 132.963 278.041 133.16C278.557 133.282 278.992 133.444 279.347 133.647ZM284.441 141.57L291.138 143.156C291.274 142.383 291.127 141.649 290.699 140.955C290.294 140.267 289.541 139.793 288.442 139.532C287.455 139.298 286.601 139.404 285.879 139.849C285.158 140.294 284.679 140.868 284.441 141.57ZM290.48 147.584L294.466 149.808C293.674 151.255 292.485 152.324 290.9 153.015C289.32 153.683 287.52 153.778 285.501 153.3C283.078 152.726 281.206 151.429 279.883 149.41C278.583 147.397 278.255 145.033 278.898 142.318C279.514 139.716 280.835 137.79 282.861 136.54C284.909 135.296 287.066 134.942 289.331 135.478C291.934 136.095 293.794 137.341 294.914 139.217C296.061 141.076 296.315 143.352 295.678 146.044C295.476 146.896 295.317 147.415 295.202 147.601L283.559 144.844C283.386 145.774 283.596 146.641 284.187 147.445C284.784 148.226 285.587 148.736 286.597 148.975C288.324 149.384 289.618 148.92 290.48 147.584ZM318.964 134.963L313.903 156.331C313.664 157.34 313.472 158.349 313.328 159.357L308.415 158.194C308.453 157.634 308.536 157.085 308.663 156.547C308.121 157.034 307.401 157.373 306.504 157.563C305.633 157.736 304.705 157.706 303.718 157.472C301.34 156.909 299.559 155.622 298.377 153.613C297.2 151.581 296.914 149.286 297.52 146.729C298.115 144.216 299.369 142.322 301.283 141.045C303.201 139.747 305.338 139.376 307.694 139.934C309.982 140.476 311.35 141.404 311.796 142.718L313.916 133.767L318.964 134.963ZM304.462 145.175C303.575 145.722 302.974 146.658 302.66 147.982C302.347 149.305 302.461 150.422 303.004 151.333C303.574 152.226 304.387 152.797 305.441 153.047C306.495 153.297 307.466 153.148 308.354 152.6C309.27 152.035 309.885 151.091 310.198 149.767C310.512 148.443 310.383 147.335 309.813 146.442C309.265 145.554 308.464 144.985 307.41 144.735C306.355 144.486 305.373 144.632 304.462 145.175ZM330.849 163.507L325.734 162.296L329.695 145.572L334.575 146.727L334.12 148.645C334.694 148.023 335.494 147.596 336.52 147.366C337.569 147.14 338.564 147.139 339.506 147.362C341.907 147.931 343.348 149.196 343.831 151.158C345.457 149.696 347.392 149.23 349.635 149.761C351.385 150.176 352.727 151.062 353.661 152.42C354.6 153.756 354.817 155.49 354.312 157.621L351.746 168.457L346.799 167.285L349.095 157.594C349.291 156.764 349.227 156.037 348.9 155.415C348.579 154.771 347.981 154.345 347.106 154.137C346.231 153.93 345.48 154.049 344.854 154.492C344.228 154.936 343.821 155.551 343.636 156.336L341.348 165.994L336.301 164.798L338.596 155.107C338.793 154.277 338.716 153.548 338.367 152.921C338.046 152.276 337.448 151.85 336.573 151.643C335.721 151.441 334.982 151.562 334.355 152.006C333.729 152.45 333.32 153.076 333.129 153.883L330.849 163.507ZM366.66 171.989C366.666 171.564 366.754 170.992 366.924 170.274C366.36 170.852 365.621 171.222 364.706 171.384C363.796 171.524 362.882 171.485 361.962 171.267C359.988 170.799 358.575 169.813 357.723 168.308C356.899 166.786 356.707 165.095 357.148 163.233L359.651 152.666L364.766 153.878L362.518 163.367C362.316 164.22 362.376 164.968 362.697 165.613C363.041 166.263 363.65 166.691 364.525 166.899C365.377 167.101 366.111 167.002 366.727 166.603C367.37 166.187 367.793 165.552 367.995 164.7L370.251 155.177L375.365 156.388L372.114 170.118C371.853 171.217 371.673 172.228 371.573 173.152L366.66 171.989ZM375.473 169.065L379.997 169.319C379.893 169.958 380.001 170.552 380.321 171.102C380.669 171.635 381.258 171.999 382.088 172.196C382.716 172.344 383.23 172.324 383.63 172.135C384.036 171.923 384.286 171.615 384.382 171.211C384.541 170.538 384.101 169.948 383.06 169.441L381.246 168.549C379.626 167.786 378.518 166.861 377.923 165.772C377.333 164.661 377.187 163.477 377.485 162.221C377.851 160.673 378.768 159.504 380.234 158.714C381.723 157.93 383.387 157.755 385.227 158.191C387.403 158.706 388.905 159.619 389.732 160.928C390.586 162.22 390.924 163.497 390.744 164.757L386.321 164.527C386.397 163.905 386.278 163.356 385.965 162.879C385.674 162.407 385.158 162.084 384.418 161.908C383.924 161.792 383.466 161.825 383.043 162.009C382.621 162.194 382.359 162.499 382.258 162.925C382.098 163.598 382.437 164.117 383.275 164.481L385.393 165.444C386.995 166.179 388.123 167.122 388.774 168.271C389.426 169.42 389.601 170.634 389.298 171.913C388.931 173.461 388.032 174.658 386.599 175.503C385.173 176.326 383.405 176.488 381.296 175.988C380.062 175.696 379.005 175.256 378.126 174.669C377.269 174.087 376.648 173.454 376.265 172.771C375.91 172.071 375.664 171.409 375.528 170.784C375.414 170.165 375.395 169.592 375.473 169.065ZM396.344 179.019L391.229 177.808L395.19 161.084L400.305 162.295L396.344 179.019ZM396.337 158.192C395.891 157.471 395.767 156.695 395.964 155.865C396.16 155.035 396.619 154.398 397.341 153.952C398.062 153.507 398.827 153.38 399.634 153.572C400.464 153.768 401.102 154.227 401.547 154.949C402.015 155.675 402.15 156.454 401.954 157.284C401.757 158.114 401.287 158.749 400.543 159.189C399.821 159.634 399.046 159.758 398.216 159.561C397.408 159.37 396.782 158.914 396.337 158.192ZM411.32 169.346C410.221 169.086 409.213 169.238 408.298 169.803C407.405 170.374 406.804 171.309 406.496 172.61C406.193 173.889 406.324 174.986 406.889 175.902C407.476 176.823 408.32 177.414 409.419 177.674C410.339 177.892 411.146 177.834 411.841 177.501C412.563 177.151 413.108 176.652 413.475 176.005L417.657 178.452C416.876 179.949 415.643 181.103 413.959 181.912C412.297 182.727 410.412 182.884 408.303 182.385C405.791 181.79 403.856 180.455 402.499 178.381C401.17 176.289 400.809 173.964 401.415 171.407C402.026 168.827 403.369 166.906 405.445 165.645C407.548 164.366 409.845 164.022 412.335 164.611C414.511 165.127 416.162 166.11 417.287 167.561C418.412 169.012 418.983 170.604 418.999 172.338L414.095 172.633C414.064 171.868 413.823 171.183 413.374 170.579C412.924 169.975 412.24 169.564 411.32 169.346ZM227.861 173.155L232.385 173.409C232.281 174.048 232.389 174.642 232.709 175.192C233.057 175.724 233.645 176.089 234.476 176.285C235.104 176.434 235.618 176.414 236.018 176.224C236.424 176.012 236.674 175.705 236.77 175.301C236.929 174.628 236.489 174.038 235.448 173.531L233.633 172.639C232.013 171.876 230.906 170.95 230.311 169.862C229.721 168.751 229.575 167.567 229.873 166.311C230.239 164.763 231.156 163.594 232.622 162.804C234.111 162.019 235.775 161.845 237.615 162.281C239.791 162.796 241.292 163.708 242.12 165.018C242.974 166.31 243.312 167.587 243.132 168.847L238.708 168.617C238.785 167.995 238.666 167.446 238.352 166.969C238.061 166.497 237.546 166.174 236.805 165.998C236.312 165.881 235.854 165.915 235.431 166.099C235.008 166.283 234.747 166.589 234.646 167.015C234.486 167.688 234.825 168.206 235.663 168.571L237.78 169.534C239.383 170.269 240.51 171.211 241.162 172.361C241.814 173.51 241.988 174.724 241.686 176.003C241.319 177.551 240.42 178.748 238.987 179.593C237.56 180.416 235.793 180.578 233.684 180.078C232.45 179.786 231.393 179.346 230.514 178.759C229.656 178.177 229.036 177.544 228.653 176.861C228.298 176.161 228.052 175.498 227.915 174.874C227.802 174.255 227.783 173.682 227.861 173.155ZM249.908 172.442L256.605 174.028C256.74 173.255 256.594 172.521 256.166 171.828C255.761 171.139 255.008 170.665 253.909 170.405C252.922 170.171 252.068 170.276 251.346 170.722C250.625 171.167 250.146 171.74 249.908 172.442ZM255.947 178.457L259.933 180.68C259.141 182.127 257.952 183.196 256.366 183.887C254.787 184.555 252.987 184.65 250.968 184.172C248.545 183.598 246.673 182.302 245.35 180.283C244.05 178.269 243.722 175.905 244.365 173.19C244.981 170.588 246.302 168.662 248.328 167.412C250.376 166.168 252.532 165.814 254.798 166.351C257.401 166.967 259.261 168.213 260.381 170.089C261.528 171.948 261.782 174.224 261.145 176.916C260.943 177.768 260.784 178.288 260.669 178.474L249.026 175.716C248.853 176.646 249.063 177.513 249.654 178.317C250.251 179.098 251.054 179.608 252.064 179.847C253.791 180.256 255.085 179.793 255.947 178.457ZM276.8 172.095L275.605 177.142C275.16 176.919 274.635 176.735 274.029 176.591C272.885 176.32 271.855 176.467 270.94 177.032C270.047 177.603 269.417 178.662 269.05 180.21L267.321 187.512L262.206 186.3L266.167 169.576L271.113 170.748L270.579 173.002C271.185 172.246 271.948 171.775 272.868 171.59C273.789 171.405 274.664 171.411 275.494 171.608C276.01 171.73 276.445 171.892 276.8 172.095ZM296.676 176.802L286.355 192.02L281.206 190.801L278.303 172.451L283.855 173.766L285.262 185.08L291.292 175.527L296.676 176.802ZM300.26 195.313L295.145 194.102L299.106 177.378L304.221 178.589L300.26 195.313ZM300.253 174.486C299.807 173.765 299.683 172.989 299.88 172.159C300.076 171.329 300.535 170.692 301.257 170.247C301.978 169.801 302.743 169.674 303.55 169.866C304.38 170.062 305.018 170.521 305.463 171.243C305.931 171.969 306.066 172.748 305.87 173.578C305.673 174.408 305.203 175.043 304.459 175.483C303.737 175.928 302.962 176.052 302.132 175.856C301.324 175.664 300.698 175.208 300.253 174.486ZM315.236 185.64C314.137 185.38 313.129 185.532 312.214 186.097C311.321 186.668 310.72 187.603 310.412 188.904C310.109 190.183 310.24 191.28 310.805 192.196C311.392 193.117 312.236 193.708 313.335 193.968C314.255 194.186 315.062 194.128 315.757 193.795C316.479 193.445 317.024 192.946 317.391 192.299L321.573 194.746C320.792 196.244 319.559 197.397 317.875 198.206C316.213 199.021 314.328 199.178 312.219 198.679C309.707 198.084 307.772 196.749 306.415 194.675C305.086 192.583 304.725 190.258 305.331 187.701C305.942 185.121 307.285 183.2 309.361 181.939C311.464 180.66 313.761 180.316 316.251 180.905C318.427 181.421 320.078 182.404 321.203 183.855C322.328 185.306 322.899 186.898 322.915 188.632L318.011 188.928C317.98 188.162 317.739 187.477 317.29 186.873C316.84 186.269 316.156 185.858 315.236 185.64ZM329.413 191.273L336.11 192.859C336.246 192.085 336.099 191.352 335.671 190.658C335.266 189.97 334.513 189.495 333.414 189.235C332.427 189.001 331.573 189.107 330.851 189.552C330.13 189.997 329.651 190.571 329.413 191.273ZM335.452 197.287L339.438 199.511C338.646 200.958 337.457 202.027 335.871 202.717C334.292 203.386 332.492 203.481 330.473 203.002C328.05 202.429 326.178 201.132 324.855 199.113C323.555 197.099 323.227 194.735 323.87 192.021C324.486 189.419 325.807 187.493 327.833 186.243C329.881 184.998 332.037 184.644 334.303 185.181C336.906 185.797 338.766 187.044 339.886 188.92C341.033 190.779 341.287 193.054 340.65 195.746C340.448 196.599 340.289 197.118 340.174 197.304L328.531 194.546C328.358 195.477 328.568 196.344 329.159 197.147C329.756 197.928 330.559 198.438 331.569 198.678C333.296 199.087 334.59 198.623 335.452 197.287Z" fill="black"/>
<path d="M240.049 622.926L238.188 623.047C238.206 622.677 238.105 622.313 237.885 621.956C237.664 621.598 237.274 621.353 236.714 621.22C236.257 621.112 235.854 621.15 235.505 621.333C235.159 621.507 234.944 621.767 234.863 622.112C234.719 622.718 234.99 623.176 235.675 623.487L236.997 624.08C237.834 624.456 238.432 624.967 238.792 625.614C239.151 626.26 239.245 626.943 239.075 627.661C238.881 628.482 238.384 629.123 237.585 629.584C236.798 630.038 235.859 630.136 234.767 629.877C234.142 629.729 233.6 629.502 233.14 629.196C232.681 628.89 232.334 628.547 232.099 628.166C231.866 627.776 231.702 627.388 231.606 627C231.523 626.606 231.506 626.218 231.557 625.836L233.461 625.785C233.382 626.327 233.482 626.819 233.762 627.26C234.051 627.703 234.527 628.002 235.189 628.159C235.693 628.279 236.111 628.259 236.444 628.102C236.786 627.946 237 627.687 237.086 627.323C237.155 627.034 237.106 626.761 236.94 626.505C236.786 626.242 236.526 626.028 236.161 625.863L234.842 625.255C234.08 624.897 233.524 624.415 233.175 623.811C232.825 623.206 232.738 622.535 232.913 621.798C233.12 620.921 233.631 620.264 234.444 619.826C235.266 619.39 236.153 619.285 237.104 619.51C237.673 619.645 238.163 619.845 238.573 620.109C238.983 620.374 239.292 620.673 239.498 621.008C239.707 621.333 239.853 621.654 239.936 621.969C240.019 622.284 240.056 622.603 240.049 622.926ZM242.513 631.49L240.554 631.026L242.904 621.105L244.863 621.569L242.513 631.49ZM254.284 634.278L252.717 633.907L252.86 632.744C252.517 633.066 252.063 633.299 251.498 633.441C250.944 633.575 250.317 633.56 249.617 633.394C248.237 633.067 247.177 632.319 246.44 631.149C245.702 629.979 245.518 628.616 245.887 627.058C246.253 625.509 247.044 624.376 248.258 623.659C249.482 622.944 250.793 622.752 252.192 623.084C253.405 623.371 254.324 623.899 254.95 624.668C255.585 625.439 255.936 626.285 256.003 627.208L254.001 627.428C253.973 626.879 253.775 626.365 253.406 625.883C253.049 625.395 252.502 625.063 251.765 624.889C250.925 624.69 250.124 624.805 249.362 625.236C248.61 625.668 248.104 626.43 247.846 627.522C247.592 628.594 247.692 629.5 248.148 630.238C248.613 630.979 249.288 631.454 250.175 631.664C250.996 631.859 251.674 631.803 252.209 631.496C252.747 631.18 253.108 630.802 253.291 630.363L250.156 629.621L250.554 627.942L255.507 629.115L254.284 634.278ZM265.223 636.869L263.194 636.388L260.356 628.283L258.689 635.321L256.758 634.864L259.107 624.943L261.514 625.513L264.087 633.053L265.642 626.491L267.573 626.948L265.223 636.869ZM275.646 639.574C274.545 639.313 273.713 638.771 273.149 637.948C272.588 637.116 272.446 636.112 272.725 634.936L274.243 628.528L276.173 628.985L274.689 635.254C274.536 635.897 274.582 636.43 274.827 636.853C275.084 637.268 275.505 637.546 276.093 637.685C276.69 637.826 277.192 637.768 277.598 637.509C278.015 637.244 278.3 636.789 278.453 636.145L279.937 629.877L281.868 630.334L280.351 636.743C280.072 637.918 279.495 638.752 278.62 639.244C277.747 639.727 276.756 639.837 275.646 639.574ZM285.442 635.953L286.967 636.315C287.442 636.427 287.85 636.391 288.19 636.205C288.531 636.01 288.753 635.698 288.855 635.269C288.958 634.831 288.9 634.452 288.68 634.134C288.471 633.809 288.125 633.589 287.639 633.474L286.114 633.113L285.442 635.953ZM286.81 638.036L285.033 637.615L284.148 641.351L282.217 640.894L284.567 630.973L288.275 631.851C289.245 632.081 289.96 632.556 290.42 633.276C290.89 633.998 291.017 634.811 290.803 635.716C290.589 636.621 290.11 637.291 289.366 637.725C288.632 638.162 287.78 638.266 286.81 638.036Z" fill="white"/>
<path d="M188.057 43.4294L172.473 39.7383" stroke="black" stroke-width="2.286" stroke-linecap="round" stroke-linejoin="round"/>
<path d="M178.419 49.379L172.473 39.7414L182.11 33.7948" stroke="black" stroke-width="2.286" stroke-linecap="round" stroke-linejoin="round"/>
<rect x="138.699" y="217.531" width="268.825" height="44.8956" rx="22.4478" transform="rotate(13.3248 138.699 217.531)" fill="#242424"/>
<path d="M243.119 262.377L241.352 262.492C241.369 262.141 241.273 261.795 241.064 261.456C240.854 261.116 240.484 260.883 239.952 260.757C239.518 260.655 239.136 260.69 238.804 260.864C238.475 261.03 238.272 261.276 238.194 261.604C238.058 262.18 238.315 262.615 238.966 262.909L240.221 263.473C241.016 263.83 241.584 264.315 241.925 264.929C242.266 265.543 242.356 266.191 242.194 266.873C242.01 267.653 241.538 268.261 240.78 268.699C240.032 269.13 239.14 269.223 238.104 268.978C237.51 268.837 236.995 268.621 236.559 268.331C236.122 268.041 235.793 267.715 235.57 267.353C235.349 266.983 235.193 266.614 235.102 266.246C235.022 265.872 235.007 265.503 235.055 265.14L236.863 265.091C236.788 265.607 236.883 266.074 237.149 266.492C237.423 266.913 237.875 267.197 238.504 267.346C238.982 267.46 239.379 267.442 239.696 267.292C240.021 267.144 240.224 266.898 240.306 266.552C240.371 266.278 240.325 266.019 240.167 265.776C240.02 265.526 239.774 265.322 239.427 265.166L238.175 264.588C237.451 264.248 236.923 263.791 236.591 263.217C236.26 262.643 236.177 262.005 236.342 261.306C236.54 260.473 237.024 259.849 237.796 259.433C238.577 259.019 239.419 258.919 240.323 259.133C240.863 259.261 241.328 259.451 241.718 259.702C242.107 259.953 242.4 260.238 242.596 260.556C242.794 260.865 242.933 261.169 243.011 261.468C243.09 261.767 243.126 262.07 243.119 262.377ZM246.66 265.377L248.109 265.72C248.56 265.827 248.947 265.793 249.27 265.616C249.594 265.431 249.805 265.135 249.901 264.728C250 264.311 249.945 263.952 249.736 263.65C249.537 263.341 249.208 263.132 248.747 263.023L247.299 262.68L246.66 265.377ZM247.96 267.355L246.273 266.955L245.432 270.503L243.599 270.069L245.83 260.648L249.351 261.482C250.272 261.7 250.951 262.151 251.388 262.835C251.834 263.52 251.955 264.292 251.751 265.152C251.548 266.011 251.093 266.647 250.387 267.06C249.69 267.475 248.881 267.573 247.96 267.355ZM256.038 265.592C255.326 265.994 254.851 266.695 254.614 267.696C254.377 268.697 254.486 269.541 254.94 270.229C255.397 270.908 256.019 271.341 256.808 271.527C257.605 271.716 258.36 271.61 259.072 271.208C259.787 270.797 260.263 270.091 260.5 269.09C260.737 268.089 260.627 267.249 260.171 266.571C259.716 265.883 259.09 265.445 258.293 265.256C257.505 265.069 256.753 265.181 256.038 265.592ZM252.711 267.259C253.059 265.789 253.814 264.714 254.976 264.035C256.138 263.356 257.383 263.174 258.712 263.489C260.049 263.805 261.085 264.528 261.819 265.656C262.552 266.784 262.745 268.083 262.397 269.553C262.051 271.015 261.297 272.085 260.135 272.764C258.973 273.443 257.724 273.625 256.386 273.308C255.057 272.993 254.026 272.272 253.292 271.144C252.558 270.016 252.365 268.721 252.711 267.259ZM271.879 268.656L268.903 267.951L267.084 275.631L265.237 275.194L267.056 267.514L264.08 266.809L264.492 265.068L272.291 266.915L271.879 268.656ZM273.709 277.2L271.849 276.76L274.08 267.339L275.941 267.78L273.709 277.2ZM278.204 278.265L276.357 277.827L278.588 268.407L284.541 269.817L284.128 271.557L280.009 270.582L279.459 272.907L283.126 273.775L282.726 275.463L279.072 274.597L278.204 278.265ZM287.709 276.334L285.721 270.096L287.873 270.606L289.102 274.84L292.098 271.607L294.158 272.094L289.543 276.769L288.605 280.728L286.771 280.294L287.709 276.334Z" fill="white"/>
<g clip-path="url(#clip1_1_6079)">
<path d="M161.87 228.409C152.614 226.217 143.334 231.942 141.142 241.198C138.95 250.453 144.676 259.733 153.931 261.925C163.188 264.117 172.467 258.391 174.659 249.136C176.851 239.881 171.126 230.601 161.87 228.409ZM163.83 254.399C163.413 254.82 162.732 254.823 162.311 254.405C158.946 251.069 154.122 249.352 147.973 249.303C147.38 249.298 146.903 248.813 146.908 248.22C146.913 247.628 147.396 247.15 147.99 247.156C154.719 247.209 160.046 249.134 163.824 252.88C164.245 253.299 164.249 253.978 163.83 254.399ZM166.962 250.322C166.438 250.847 165.588 250.85 165.063 250.327C161.214 246.491 154.538 244.063 148.827 244.418C148.086 244.463 147.449 243.901 147.402 243.161C147.358 242.421 147.92 241.785 148.659 241.738C155.183 241.333 162.537 244.02 166.957 248.424C167.482 248.947 167.486 249.798 166.962 250.322ZM168.264 245.612C163.622 241.124 154.781 238.719 149.254 239.063C148.366 239.118 147.601 238.443 147.546 237.555C147.492 236.667 148.166 235.903 149.054 235.847C155.399 235.452 165.158 238.13 170.502 243.295C171.144 243.914 171.16 244.933 170.542 245.572C169.925 246.213 168.901 246.23 168.264 245.612Z" fill="#57B65F"/>
</g>
</g>
<defs>
<clipPath id="clip0_1_6079">
<rect x="161.791" width="324.199" height="702" rx="34.5813" transform="rotate(13.3248 161.791 0)" fill="white"/>
</clipPath>
<clipPath id="clip1_1_6079">
<rect width="34.5813" height="34.5813" fill="white" transform="translate(145.074 224.371) rotate(13.3248)"/>
</clipPath>
</defs>
</svg>
