<svg width="369" height="64" viewBox="0 0 369 64" fill="none" xmlns="http://www.w3.org/2000/svg">
<path d="M0.178658 62.0863H19.9439V20.2255L45.9235 62.0863H56.9713L82.8646 20.2255V62.0863H103.234V1.66863H75.0103L52.1379 39.3002L29.4381 1.66863H0.178658V62.0863ZM142.629 61.3095H162.998V38.1782L196.832 1.66863H173.873L153.331 23.5916L133.135 1.66863H107.932L142.629 38.1782V61.3095ZM251.948 62H276.461L240.383 29.6334L274.821 2.35912H250.999L227.35 21.4338H220.272V2.35912H201.543V62H220.272V39.4728H226.573L251.948 62ZM319.392 0.632901C313.609 0.632901 308.43 0.978145 303.683 1.75494C299.022 2.44543 295.052 3.39485 291.858 4.60321C288.751 5.81156 285.989 7.27885 283.659 9.00506C281.242 10.7313 279.43 12.4575 278.049 14.1837C276.754 15.9099 275.718 17.8088 274.942 19.8802C274.078 21.9517 273.561 23.8506 273.388 25.4041C273.129 27.0441 273.043 28.684 273.043 30.4965V32.9132C273.043 34.6394 273.129 36.3656 273.388 38.0055C273.561 39.5591 274.078 41.458 274.942 43.5295C275.718 45.6009 276.754 47.4998 278.049 49.3123C279.43 51.0385 281.242 52.7647 283.659 54.5773C286.076 56.3035 288.838 57.7708 291.945 59.0654C295.052 60.2738 299.022 61.2232 303.683 62C308.43 62.7768 313.609 63.122 319.392 63.122H322.154C327.936 63.122 333.115 62.7768 337.776 62C342.523 61.2232 346.407 60.2738 349.514 59.0654C352.621 57.7708 355.383 56.3035 357.8 54.5773C360.217 52.7647 362.029 51.0385 363.324 49.3123C364.619 47.4998 365.654 45.6009 366.517 43.5295C367.294 41.458 367.898 39.5591 368.071 38.0055C368.33 36.3656 368.416 34.6394 368.416 32.9132V30.4965C368.416 28.684 368.33 27.0441 368.071 25.4041C367.898 23.7642 367.294 21.9517 366.517 19.8802C365.654 17.8088 364.619 15.9099 363.238 14.1837C361.943 12.4575 360.13 10.7313 357.714 9.00506C355.383 7.27885 352.621 5.81156 349.514 4.60321C346.321 3.39485 342.437 2.44543 337.776 1.75494C333.115 0.978145 327.936 0.632901 322.154 0.632901H319.392ZM346.839 32.2227C346.839 34.1216 346.493 36.0204 345.717 37.7466C345.026 39.4728 343.731 41.1991 341.919 42.839C340.106 44.5652 337.344 45.9462 333.633 46.8956C330.439 47.845 326.556 48.2766 322.154 48.4492C321.463 48.4492 320.427 48.4492 319.996 48.4492C315.249 48.3629 311.106 47.845 307.653 46.8956C303.942 45.8598 301.266 44.4789 299.454 42.7527C297.728 41.0264 296.433 39.3002 295.742 37.574C294.966 35.8478 294.62 33.9489 294.62 32.0501V31.1007C294.62 20.8297 302.993 15.5647 319.651 15.2195C320.168 15.2195 321.722 15.2195 322.499 15.3058C325.865 15.3921 328.886 15.651 331.562 16.2552C334.755 16.9457 337.344 17.8088 339.243 18.8445C341.142 19.7939 342.696 21.0886 343.818 22.5559C345.026 24.0232 345.803 25.4041 346.234 26.7851C346.666 28.0798 346.839 29.5471 346.839 31.1007V32.2227Z" fill="white"/>
</svg>
